<svg xmlns="http://www.w3.org/2000/svg" version="1.1" xmlns:xlink="http://www.w3.org/1999/xlink" xmlns:svgjs="http://svgjs.dev/svgjs" width="2000" height="1252" viewBox="0 0 2000 1252"><g transform="matrix(1,0,0,1,-1.2121212121212466,229.57894461423666)"><svg viewBox="0 0 396 248" data-background-color="#060606" preserveAspectRatio="xMidYMid meet" height="1252" width="2000" xmlns="http://www.w3.org/2000/svg" xmlns:xlink="http://www.w3.org/1999/xlink"><g id="tight-bounds" transform="matrix(1,0,0,1,0.2400000000000091,0.4000000000000057)"><svg viewBox="0 0 395.52 247.2" height="247.2" width="395.52"><g><svg></svg></g><g><svg viewBox="0 0 395.52 247.2" height="247.2" width="395.52"><g transform="matrix(1,0,0,1,75.54432000000001,77.65121622932746)"><svg viewBox="0 0 244.43135999999996 91.89756754134507" height="91.89756754134507" width="244.43135999999996"><g><svg viewBox="0 0 244.43135999999996 91.89756754134507" height="91.89756754134507" width="244.43135999999996"><g><svg viewBox="0 0 244.43135999999996 91.89756754134507" height="91.89756754134507" width="244.43135999999996"><g><svg viewBox="0 0 244.43135999999996 91.89756754134507" height="91.89756754134507" width="244.43135999999996"><g id="textblocktransform"><svg viewBox="0 0 244.43135999999996 91.89756754134507" height="91.89756754134507" width="244.43135999999996" id="textblock"><g><svg viewBox="0 0 244.43135999999996 91.89756754134507" height="91.89756754134507" width="244.43135999999996"><g transform="matrix(1,0,0,1,0,0)"><svg width="244.43135999999996" viewBox="1.95 -33.1 90.7 34.1" height="91.89756754134507" data-palette-color="#ffffff"><path d="M7.45 0.85L7.45 0.85Q5.1 0.85 3.93 0.3 2.75-0.25 2.35-1.07 1.95-1.9 1.95-2.7L1.95-2.7 1.95-3.05Q1.95-3.45 2.2-4.13 2.45-4.8 3.3-4.8L3.3-4.8Q3.7-4.8 3.75-4.17 3.8-3.55 4.2-2.85L4.2-2.85Q5-1.55 6.25-1.15 7.5-0.75 9.4-0.75L9.4-0.75Q11.05-0.75 12.93-1.3 14.8-1.85 16.45-2.85 18.1-3.85 19.13-5.25 20.15-6.65 20.15-8.4L20.15-8.4Q20.15-10 19.03-11.05 17.9-12.1 16.1-12.9 14.3-13.7 12.33-14.43 10.35-15.15 8.55-16.15 6.75-17.15 5.63-18.6 4.5-20.05 4.5-22.25L4.5-22.25Q4.5-24.4 5.73-26.35 6.95-28.3 9.08-29.83 11.2-31.35 13.88-32.23 16.55-33.1 19.45-33.1L19.45-33.1Q21.6-33.1 22.65-32.33 23.7-31.55 24.08-30.43 24.45-29.3 24.45-28.15L24.45-28.15Q24.45-27.9 24.3-27.3 24.15-26.7 23.83-26.23 23.5-25.75 23.05-25.75L23.05-25.75Q22.7-25.75 22.7-26.4L22.7-26.4 22.7-27.4Q22.7-29.7 21.33-30.48 19.95-31.25 17.9-31.25L17.9-31.25Q16.55-31.25 14.63-30.78 12.7-30.3 10.85-29.33 9-28.35 7.78-26.95 6.55-25.55 6.55-23.65L6.55-23.65Q6.55-23.55 6.58-23.43 6.6-23.3 6.6-23.2L6.6-23.2Q6.85-21.1 8.13-19.73 9.4-18.35 11.25-17.45 13.1-16.55 15.13-15.85 17.15-15.15 18.9-14.4 20.65-13.65 21.75-12.63 22.85-11.6 22.85-9.95L22.85-9.95Q22.85-8 21.6-6.08 20.35-4.15 18.2-2.58 16.05-1 13.28-0.08 10.5 0.85 7.45 0.85ZM36.7 0.4L36.7 0.4Q35.5 0.4 35.5-0.7L35.5-0.7Q36.15-7.65 36.65-14.05 37.15-20.45 38.4-27.05L38.4-27.05 38.4-28.55Q38.4-29.1 38.55-29.75 38.7-30.4 38.9-30.9L38.9-30.9 26.7-30.9Q26.2-30.9 26.2-31.25L26.2-31.25Q26.2-31.6 26.62-32.02 27.05-32.45 27.55-32.45L27.55-32.45 40.3-32.45Q41-32.9 42.1-32.9L42.1-32.9Q42.35-32.9 42.6-32.83 42.85-32.75 42.9-32.5L42.9-32.5Q45.6-32.5 48-32.52 50.4-32.55 52.1-32.58 53.8-32.6 54.35-32.6L54.35-32.6Q54.65-32.6 54.65-32.3L54.65-32.3Q54.65-32 54.2-31.53 53.75-31.05 52.75-30.9L52.75-30.9 42.25-30.9Q41.4-28.5 40.7-25.3 40-22.1 39.47-18.65 38.95-15.2 38.6-11.98 38.25-8.75 38.07-6.2 37.9-3.65 37.9-2.35L37.9-2.35Q38-1.7 38.12-1.53 38.25-1.35 38.25-1.05L38.25-1.05Q38.25-0.35 37.75 0.03 37.25 0.4 36.7 0.4ZM86.75 1L86.75 1Q86.4 1 86.09 0.7 85.8 0.4 85.8-0.2L85.8-0.2Q85.8-1.2 86-2.4 86.2-3.6 86.4-4.85L86.4-4.85Q84.95-2.75 82.67-1.53 80.4-0.3 77.82 0.25 75.25 0.8 72.9 0.8L72.9 0.8Q68.2 0.8 64.97-1 61.75-2.8 60.1-6.05 58.45-9.3 58.45-13.65L58.45-13.65Q58.45-17.5 59.8-20.95 61.15-24.4 63.8-27.1 66.45-29.8 70.34-31.35 74.25-32.9 79.34-32.9L79.34-32.9Q80.95-32.9 82.65-32.68 84.34-32.45 85.8-31.83 87.25-31.2 88.12-29.98 89-28.75 89-26.8L89-26.8Q89-25.25 88.34-24.48 87.7-23.7 86.8-23.7L86.8-23.7Q85.84-23.7 85.84-24.25L85.84-24.25Q85.84-24.8 86.34-25.68 86.84-26.55 86.84-27.35L86.84-27.35Q86.84-28.85 85.82-29.8 84.8-30.75 83.09-31.2 81.4-31.65 79.45-31.65L79.45-31.65Q75-31.65 71.55-30.15 68.09-28.65 65.72-26.08 63.35-23.5 62.12-20.28 60.9-17.05 60.9-13.55L60.9-13.55Q60.9-10.1 62.15-7.1 63.4-4.1 65.97-2.23 68.55-0.35 72.45-0.35L72.45-0.35Q75.7-0.35 78.17-1.18 80.65-2 82.45-3.25 84.25-4.5 85.4-5.85 86.55-7.2 87.09-8.3L87.09-8.3Q87.34-9.35 87.5-10.4 87.65-11.45 87.8-12.4L87.8-12.4 76.25-12.4Q75.75-12.4 75.75-12.75L75.75-12.75Q75.75-13.1 76.17-13.53 76.59-13.95 77.09-13.95L77.09-13.95Q77.45-13.95 78.84-13.95 80.25-13.95 82.22-13.98 84.2-14 86.25-14 88.3-14 89.95-14.03 91.59-14.05 92.34-14.1L92.34-14.1Q92.65-14.1 92.65-13.8L92.65-13.8Q92.65-13.5 92.2-13.03 91.75-12.55 90.75-12.4L90.75-12.4 89.75-12.4Q89.5-11.55 89.12-10.4 88.75-9.25 88.47-7.5 88.2-5.75 88.2-3.05L88.2-3.05Q88.2-2.5 88.27-2.02 88.34-1.55 88.34-1.1L88.34-1.1Q88.34-0.15 87.82 0.43 87.3 1 86.75 1Z" opacity="1" transform="matrix(1,0,0,1,0,0)" fill="#ffffff" class="wordmark-text-0" data-fill-palette-color="primary" id="text-0"></path></svg></g></svg></g></svg></g></svg></g><g></g></svg></g></svg></g></svg></g><g><path d="M95.971 55.956A122.216 122.216 0 0 1 299.549 55.956L291.262 55.956A113.928 113.928 0 0 0 104.258 55.956L95.971 55.956M95.971 191.244A122.216 122.216 0 0 0 299.549 191.244L291.262 191.244A113.928 113.928 0 0 1 104.258 191.244L95.971 191.244" fill="#ffffff" stroke="transparent" data-fill-palette-color="tertiary"></path></g></svg></g><defs></defs></svg><rect width="395.52" height="247.2" fill="none" stroke="none" visibility="hidden"></rect></g></svg></g></svg>